<svg xmlns="http://www.w3.org/2000/svg" width="87" height="87" viewBox="0 0 87 87">
  <g id="Group_288" data-name="Group 288" transform="translate(0 -24)">
    <path id="Rectangle_24" data-name="Rectangle 24" d="M0,0H87a0,0,0,0,1,0,0V47A40,40,0,0,1,47,87H0a0,0,0,0,1,0,0V0A0,0,0,0,1,0,0Z" transform="translate(0 24)" fill="#5c83ff"/>
    <path id="Rectangle_23" data-name="Rectangle 23" d="M0,0H87a0,0,0,0,1,0,0V27A60,60,0,0,1,27,87H0a0,0,0,0,1,0,0V0A0,0,0,0,1,0,0Z" transform="translate(0 24)" fill="#4969cc"/>
    <path id="Rectangle_16" data-name="Rectangle 16" d="M0,0H87a0,0,0,0,1,0,0V0A87,87,0,0,1,0,87H0a0,0,0,0,1,0,0V0A0,0,0,0,1,0,0Z" transform="translate(0 24)" fill="#33498e"/>
  </g>
</svg>
