<svg xmlns="http://www.w3.org/2000/svg" xmlns:xlink="http://www.w3.org/1999/xlink" width="86" height="87" viewBox="0 0 86 87">
  <defs>
    <style>
      .cls-1 {
        clip-path: url(#clip-Artboard_1);
      }

      .cls-2 {
        fill: #e9ebf8;
      }

      .cls-3 {
        fill: #5c83ff;
      }

      .cls-4 {
        fill: #4969cc;
      }

      .cls-5 {
        fill: #33498e;
      }

      .cls-6 {
        fill: #fff;
      }
    </style>
    <clipPath id="clip-Artboard_1">
      <rect width="86" height="87"/>
    </clipPath>
  </defs>
  <g id="Artboard_1" data-name="Artboard – 1" class="cls-1">
    <rect class="cls-6" width="86" height="87"/>
    <g id="Group_288" data-name="Group 288" transform="translate(-3.178 -24)">
      <rect id="Rectangle_159" data-name="Rectangle 159" class="cls-2" width="86" height="87" transform="translate(3.178 24)"/>
      <path id="Rectangle_24" data-name="Rectangle 24" class="cls-3" d="M0,0H86a0,0,0,0,1,0,0V47A40,40,0,0,1,46,87H0a0,0,0,0,1,0,0V0A0,0,0,0,1,0,0Z" transform="translate(3.178 24)"/>
      <path id="Rectangle_23" data-name="Rectangle 23" class="cls-4" d="M0,0H86a0,0,0,0,1,0,0V27A60,60,0,0,1,26,87H0a0,0,0,0,1,0,0V0A0,0,0,0,1,0,0Z" transform="translate(3.178 24)"/>
      <path id="Rectangle_16" data-name="Rectangle 16" class="cls-5" d="M0,0H87a0,0,0,0,1,0,0V0A87,87,0,0,1,0,87H0a0,0,0,0,1,0,0V0A0,0,0,0,1,0,0Z" transform="translate(2.178 24)"/>
    </g>
  </g>
</svg>
