<svg id="Layer_1" data-name="Layer 1" xmlns="http://www.w3.org/2000/svg" viewBox="0 0 438.13 100.87"><defs><style>.cls-1{fill:#c2c4c6;}.cls-2{fill:#f1f2f2;}.cls-3{fill:#33498e;}.cls-4{fill:#dfd370;}.cls-5{fill:#df1f26;}.cls-5,.cls-6{stroke:#231f20;stroke-miterlimit:10;stroke-width:0.28px;}.cls-6{fill:#000037;}.cls-7{fill:#616264;}</style></defs><title>Treinsvg</title><path class="cls-1" d="M78.19,11.93h281a64.34,64.34,0,0,1,64.34,64.34V90.83a0,0,0,0,1,0,0H13.85a0,0,0,0,1,0,0V76.27A64.34,64.34,0,0,1,78.19,11.93Z"/><path class="cls-2" d="M90.19,20.43h257a64.34,64.34,0,0,1,64.34,64.34v6.06a0,0,0,0,1,0,0H25.85a0,0,0,0,1,0,0V84.77A64.34,64.34,0,0,1,90.19,20.43Z"/><rect class="cls-3" x="25.85" y="80.89" width="385.73" height="9.93"/><path class="cls-4" d="M364.83,12.18s-.61,4.59,0,4.37,30.92,6.06,46.75,37.14h7.92S406.09,15.85,364.83,12.18Z"/><path class="cls-4" d="M72.64,12.18s.62,4.59,0,4.37S41.73,22.61,25.9,53.69H18S31.38,15.85,72.64,12.18Z"/><rect class="cls-5" x="105.7" y="31.93" width="21.11" height="57.89"/><rect class="cls-5" x="126.81" y="31.93" width="21.11" height="57.89"/><rect class="cls-6" x="110.41" y="41.55" width="10.55" height="27.57" rx="2.83"/><rect class="cls-6" x="132.09" y="41.55" width="10.55" height="27.57" rx="2.83"/><rect class="cls-5" x="290.12" y="31.93" width="21.11" height="57.89"/><rect class="cls-5" x="311.23" y="31.93" width="21.11" height="57.89"/><rect class="cls-6" x="294.84" y="41.55" width="10.55" height="27.57" rx="2.83"/><rect class="cls-6" x="316.51" y="41.55" width="10.55" height="27.57" rx="2.83"/><rect class="cls-6" x="50.11" y="37.38" width="38.81" height="23.15" rx="4.25"/><path class="cls-7" d="M98.64,52.52H97V42.29l-1.72,1.05V41.59L97,40.44h1.69Z"/><rect class="cls-6" x="350.52" y="37.38" width="38.81" height="23.15" rx="4.25"/><path class="cls-7" d="M342.26,52.52h-1.69V42.29l-1.72,1.05V41.59l1.72-1.15h1.69Z"/><path class="cls-7" d="M277.83,51.05,282,45.44a4.22,4.22,0,0,0,.56-1,2.53,2.53,0,0,0,.21-1v0a1.45,1.45,0,0,0-.43-1.12,1.66,1.66,0,0,0-1.2-.4,1.69,1.69,0,0,0-1.2.44,2,2,0,0,0-.55,1.23h-1.75a4.47,4.47,0,0,1,.61-1.77,3,3,0,0,1,1.19-1.12,3.5,3.5,0,0,1,1.68-.39,4.18,4.18,0,0,1,1.85.37,2.59,2.59,0,0,1,1.16,1.08,3.34,3.34,0,0,1,.4,1.7h0a3.67,3.67,0,0,1-.27,1.33,5.27,5.27,0,0,1-.74,1.35l-3.49,4.75h4.56v1.61h-6.8Z"/><path class="cls-7" d="M153.2,51.05l4.21-5.61a4.64,4.64,0,0,0,.57-1,2.71,2.71,0,0,0,.2-1v0a1.48,1.48,0,0,0-.42-1.12,1.68,1.68,0,0,0-1.21-.4,1.65,1.65,0,0,0-1.19.44,2,2,0,0,0-.56,1.23h-1.75a4.47,4.47,0,0,1,.61-1.77,3,3,0,0,1,1.19-1.12,3.54,3.54,0,0,1,1.69-.39,4.14,4.14,0,0,1,1.84.37,2.54,2.54,0,0,1,1.16,1.08,3.34,3.34,0,0,1,.4,1.7h0a3.87,3.87,0,0,1-.26,1.33,6,6,0,0,1-.74,1.35l-3.5,4.75H160v1.61H153.2Z"/><rect class="cls-6" x="161.64" y="53.69" width="112.58" height="23.15" rx="4.25"/></svg>