<svg xmlns="http://www.w3.org/2000/svg" viewBox="0 0 1074.79 181.86"><defs><style>.cls-1{fill:#c2c4c6;}.cls-2{fill:#f1f2f2;}.cls-3{fill:#33498e;}.cls-4{fill:#dfd370;}.cls-5{fill:#df1f26;}.cls-5,.cls-6{stroke:#231f20;stroke-width:0.28px;}.cls-5,.cls-6,.cls-8,.cls-9{stroke-miterlimit:10;}.cls-6{fill:#000037;}.cls-7{fill:#616264;}.cls-8,.cls-9{fill:none;stroke-width:5.67px;}.cls-8{stroke:#4d4d4f;}.cls-9{stroke:#4e4e4f;}</style></defs><title>Treinsvg</title><g id="Layer_1" data-name="Layer 1"><path class="cls-1" d="M64.34,0h281a64.34,64.34,0,0,1,64.34,64.34V78.89a0,0,0,0,1,0,0H0a0,0,0,0,1,0,0V64.34A64.34,64.34,0,0,1,64.34,0Z"/><path class="cls-2" d="M76.34,8.49h257a64.34,64.34,0,0,1,64.34,64.34v6.06a0,0,0,0,1,0,0H12a0,0,0,0,1,0,0V72.83A64.34,64.34,0,0,1,76.34,8.49Z"/><rect class="cls-3" x="12" y="68.96" width="385.73" height="9.93"/><path class="cls-4" d="M364.83,204.82s-.61,4.58,0,4.37,30.92,6.06,46.75,37.14h7.92S406.09,208.48,364.83,204.82Z" transform="translate(-13.85 -204.57)"/><path class="cls-4" d="M72.64,204.82s.62,4.58,0,4.37-30.91,6.06-46.74,37.14H18S31.38,208.48,72.64,204.82Z" transform="translate(-13.85 -204.57)"/><rect class="cls-5" x="91.85" y="20" width="21.11" height="57.89"/><rect class="cls-5" x="112.96" y="20" width="21.11" height="57.89"/><rect class="cls-6" x="96.57" y="29.62" width="10.55" height="27.57" rx="2.83"/><rect class="cls-6" x="118.24" y="29.62" width="10.55" height="27.57" rx="2.83"/><rect class="cls-5" x="276.28" y="20" width="21.11" height="57.89"/><rect class="cls-5" x="297.38" y="20" width="21.11" height="57.89"/><rect class="cls-6" x="280.99" y="29.62" width="10.55" height="27.57" rx="2.83"/><rect class="cls-6" x="302.66" y="29.62" width="10.55" height="27.57" rx="2.83"/><rect class="cls-6" x="36.26" y="25.45" width="38.81" height="23.15" rx="4.25"/><path class="cls-7" d="M98.64,245.16H97V234.93l-1.72,1v-1.75L97,233.08h1.69Z" transform="translate(-13.85 -204.57)"/><rect class="cls-6" x="336.67" y="25.45" width="38.81" height="23.15" rx="4.25"/><path class="cls-7" d="M342.26,245.16h-1.69V234.93l-1.72,1v-1.75l1.72-1.15h1.69Z" transform="translate(-13.85 -204.57)"/><path class="cls-7" d="M277.83,243.69l4.21-5.62a4,4,0,0,0,.56-1,2.57,2.57,0,0,0,.21-1v0a1.43,1.43,0,0,0-.43-1.12,1.92,1.92,0,0,0-2.4,0,2,2,0,0,0-.55,1.23h-1.75a4.47,4.47,0,0,1,.61-1.77,3.07,3.07,0,0,1,1.19-1.13,3.62,3.62,0,0,1,1.68-.38,4.18,4.18,0,0,1,1.85.37,2.56,2.56,0,0,1,1.16,1.07,3.38,3.38,0,0,1,.4,1.71h0a3.68,3.68,0,0,1-.27,1.34,5.44,5.44,0,0,1-.74,1.35l-3.49,4.75h4.56v1.61h-6.8Z" transform="translate(-13.85 -204.57)"/><path class="cls-7" d="M153.2,243.69l4.21-5.62a4.36,4.36,0,0,0,.57-1,2.75,2.75,0,0,0,.2-1v0a1.46,1.46,0,0,0-.42-1.12,1.68,1.68,0,0,0-1.21-.4,1.61,1.61,0,0,0-1.19.44,2,2,0,0,0-.56,1.23h-1.75a4.47,4.47,0,0,1,.61-1.77,3.14,3.14,0,0,1,1.19-1.13,3.66,3.66,0,0,1,1.69-.38,4.14,4.14,0,0,1,1.84.37,2.52,2.52,0,0,1,1.16,1.07,3.38,3.38,0,0,1,.4,1.71h0a3.88,3.88,0,0,1-.26,1.34,6.17,6.17,0,0,1-.74,1.35l-3.5,4.75H160v1.61H153.2Z" transform="translate(-13.85 -204.57)"/><rect class="cls-6" x="147.79" y="41.76" width="112.58" height="23.15" rx="4.25"/></g><g id="Layer_2" data-name="Layer 2"><line class="cls-8" x1="1068.28" y1="88.22" x2="1049.21" y2="118.52"/><line class="cls-8" x1="1050.08" y1="86.96" x2="1031.02" y2="117.26"/><line class="cls-8" x1="1030.68" y1="86.96" x2="1011.61" y2="117.26"/><line class="cls-8" x1="1011.27" y1="86.96" x2="992.21" y2="117.26"/><line class="cls-8" x1="992.07" y1="86.96" x2="973" y2="117.26"/><line class="cls-9" x1="665.07" y1="87.68" x2="1074.79" y2="87.68"/><line class="cls-9" x1="646" y1="117.97" x2="1055.73" y2="117.97"/><line class="cls-8" x1="50.18" y1="148.94" x2="31.12" y2="179.23"/><line class="cls-9" x1="17.32" y1="179.02" x2="57.88" y2="179.02"/><line class="cls-9" x1="17.32" y1="149.15" x2="57.88" y2="149.15"/><line class="cls-8" x1="90.75" y1="148.94" x2="71.68" y2="179.23"/><line class="cls-9" x1="57.88" y1="179.02" x2="98.45" y2="179.02"/><line class="cls-9" x1="57.88" y1="149.15" x2="98.45" y2="149.15"/></g></svg>