<?xml version="1.0" standalone="no"?>
<!DOCTYPE svg PUBLIC "-//W3C//DTD SVG 20010904//EN"
 "http://www.w3.org/TR/2001/REC-SVG-20010904/DTD/svg10.dtd">
<svg version="1.0" xmlns="http://www.w3.org/2000/svg"
 width="360.000000pt" height="360.000000pt" viewBox="0 0 360.000000 360.000000"
 preserveAspectRatio="xMidYMid meet">
<metadata>
Created by potrace 1.11, written by Peter Selinger 2001-2013
</metadata>
<g transform="translate(0.000000,360.000000) scale(0.100000,-0.100000)"
fill="#000000" stroke="none">
<path d="M440 1745 l0 -1336 953 4 c883 3 957 4 1022 21 340 90 581 327 673
663 l26 98 4 943 3 942 -1340 0 -1341 0 0 -1335z m848 163 l2 -728 -150 0
-150 0 0 730 0 731 148 -3 147 -3 3 -727z m1297 617 l0 -110 -207 -3 -208 -2
0 -615 0 -615 -150 0 -150 0 0 615 0 615 -205 0 -205 0 0 115 0 115 563 -2
562 -3 0 -110z"/>
</g>
</svg>
