<svg xmlns="http://www.w3.org/2000/svg" xmlns:xlink="http://www.w3.org/1999/xlink" width="86" height="87" viewBox="0 0 86 87">
  <defs>
    <clipPath id="clip-Artboard_1">
      <rect width="86" height="87"/>
    </clipPath>
  </defs>
  <g id="Artboard_1" data-name="Artboard – 1" clip-path="url(#clip-Artboard_1)">
    <rect width="86" height="87" fill="#fff"/>
    <g id="Group_288" data-name="Group 288" transform="translate(0 -24)">
      <rect id="Rectangle_159" data-name="Rectangle 159" width="86" height="87" transform="translate(0 24)" fill="#fff"/>
      <path id="Rectangle_24" data-name="Rectangle 24" d="M0,0H86a0,0,0,0,1,0,0V47A40,40,0,0,1,46,87H0a0,0,0,0,1,0,0V0A0,0,0,0,1,0,0Z" transform="translate(0 24)" fill="#5c83ff"/>
      <path id="Rectangle_23" data-name="Rectangle 23" d="M0,0H86a0,0,0,0,1,0,0V27A60,60,0,0,1,26,87H0a0,0,0,0,1,0,0V0A0,0,0,0,1,0,0Z" transform="translate(0 24)" fill="#4969cc"/>
      <path id="Rectangle_16" data-name="Rectangle 16" d="M0,0H86a0,0,0,0,1,0,0V1A86,86,0,0,1,0,87H0a0,0,0,0,1,0,0V0A0,0,0,0,1,0,0Z" transform="translate(0 24)" fill="#33498e"/>
    </g>
  </g>
</svg>
